<?xml version="1.0" encoding="UTF-8"?> <svg xmlns="http://www.w3.org/2000/svg" width="180" height="28" viewBox="0 0 180 28" fill="none"> <path d="M75.8686 8.20461C73.8332 8.20461 71.9942 8.82238 70.4249 9.88499V0.197904H66.0847V18.0646C66.0847 23.5013 70.4739 27.8753 75.8441 27.8753C81.2143 27.8753 85.6525 23.526 85.6525 18.0153C85.6525 12.5047 81.3122 8.20461 75.8686 8.20461ZM53.3336 8.50117C48.503 8.99532 44.5551 13.1964 44.5551 18.1882C44.5551 23.4766 49.0426 27.9 54.2901 27.9C59.5377 27.9 64.0251 23.4766 64.0251 18.1882C64.0251 15.9394 63.216 13.8635 61.9163 12.2328L52.304 0.222868H46.6887L53.3339 8.50146L53.3336 8.50117ZM19.7394 19.3248L15.7671 8.89637H12.7266L8.72951 19.3248L4.73244 8.89637H0L6.98868 27.2326H10.0292L14.2224 16.31L18.44 27.2326H21.4806L28.4445 8.89637H23.7365L19.7394 19.3248ZM97.4226 8.22927C92.0034 8.22927 87.6142 12.4797 87.6142 17.8421C87.6142 23.2044 91.4641 27.8997 97.1776 27.8997C100.611 27.8997 103.381 26.244 105.343 23.402L101.959 20.6344C100.978 22.4137 99.09 23.4517 97.2017 23.4517C94.7497 23.4517 92.3466 21.697 92.1503 19.1269H106.348V17.7924C106.348 12.1828 102.67 8.22897 97.4223 8.22897L97.4226 8.22927ZM152.841 8.22927C147.421 8.22927 143.057 12.4797 143.057 18.0893C143.057 23.353 146.907 27.9 152.595 27.9C156.028 27.9 158.799 26.2443 160.761 23.4023L157.769 20.857C156.715 22.488 154.802 23.4517 152.521 23.4517C150.241 23.4517 147.789 21.697 147.593 19.1269H161.741V17.5948C161.741 12.1828 158.088 8.22897 152.84 8.22897L152.841 8.22927ZM168.044 14.259C168.044 13.1221 169.588 12.2078 171.599 12.2078C173.61 12.2078 175.841 13.2211 177.288 14.8518L179.912 11.6147C177.411 9.39053 174.885 8.22927 171.722 8.22927C167.774 8.22927 163.703 10.0579 163.703 14.259C163.703 19.4238 168.117 19.7946 171.722 20.0912C173.732 20.2395 175.522 20.3878 175.522 21.7223C175.522 23.1554 173.487 23.8228 171.697 23.8228C169.613 23.8228 167.357 22.9331 165.714 20.9315L162.918 23.9218C165.15 26.6648 168.387 27.8756 171.55 27.8756C175.522 27.8756 179.862 25.9727 179.862 21.6236C179.862 16.7061 175.399 16.2363 171.966 15.8904C169.809 15.6681 168.043 15.4702 168.043 14.2593L168.044 14.259ZM112.944 13.0728V8.89637H108.604V27.2079H112.944V19.4731C113.533 15.1484 116.941 13.4187 120.889 13.4187V8.89637H120.448C117.113 8.89637 114.686 10.1319 112.944 13.0728ZM126.725 13.0728V8.89637H122.385V27.2079H126.725V19.4731C127.314 14.6049 131.483 13.4187 134.67 13.4187V8.89637H134.204C130.919 8.89637 128.442 10.1073 126.725 13.0728ZM37.9831 27.2079H42.3234V0.222567H37.9831V27.2079ZM54.3143 23.5013C51.3227 23.5013 48.8951 21.0795 48.8951 18.0646C48.8951 15.0498 51.3227 12.6033 54.2898 12.6033C57.257 12.6033 59.7579 15.0251 59.7579 18.0646C59.7579 21.1042 57.3059 23.5013 54.3143 23.5013ZM75.8438 23.5013C72.9011 23.5013 70.4247 21.1288 70.4247 18.04C70.4247 14.9511 72.7543 12.6033 75.8683 12.6033C78.9823 12.6033 81.3119 15.0498 81.3119 18.04C81.3119 21.0302 78.8354 23.5013 75.8438 23.5013ZM30.4796 27.2079H34.8199V8.89667H30.4796V27.2082V27.2079ZM136.534 27.2079H140.874V8.89667H136.534V27.2082V27.2079ZM32.5887 0.000300716C30.8231 0.000300716 29.3518 1.48308 29.3518 3.36107C29.3518 5.23905 30.8965 6.54889 32.5887 6.54889C34.477 6.54889 35.899 4.96746 35.899 3.26211C35.899 1.55677 34.4032 0 32.5887 0V0.000300716ZM138.692 0.000300716C136.926 0.000300716 135.43 1.48308 135.43 3.3364C135.43 5.18972 136.877 6.52423 138.765 6.52423C140.653 6.52423 141.953 5.21439 141.953 3.41039C141.953 1.60639 140.482 0 138.692 0L138.692 0.000300716ZM148.108 15.4699C148.819 13.6659 150.364 12.6033 152.644 12.6033C154.925 12.6033 156.298 13.7153 156.887 15.4699H148.108ZM92.6657 15.4699C93.4013 13.6659 94.9216 12.6033 97.1776 12.6033C99.4335 12.6033 100.905 13.7153 101.493 15.4699H92.6657Z" fill="#FAFAFA"></path> </svg> 